<?xml version="1.0" encoding="utf-8"?>
<!-- Generator: Adobe Illustrator 25.0.1, SVG Export Plug-In . SVG Version: 6.00 Build 0)  -->
<svg version="1.1" id="Calque_1" xmlns="http://www.w3.org/2000/svg" xmlns:xlink="http://www.w3.org/1999/xlink" x="0px" y="0px"
	 viewBox="0 0 2879 197" style="enable-background:new 0 0 2879 197;" xml:space="preserve">
<style type="text/css">
	.st0{filter:url(#Adobe_OpacityMaskFilter);}
	.st1{fill-rule:evenodd;clip-rule:evenodd;fill:#FFFFFF;}
	.st2{mask:url(#b_1_);}
	.st3{fill-rule:evenodd;clip-rule:evenodd;fill:#211A29;}
	.st4{fill-rule:evenodd;clip-rule:evenodd;fill:#1A1823;}
	.st5{fill-rule:evenodd;clip-rule:evenodd;fill:#2F2439;}
	.st6{filter:url(#Adobe_OpacityMaskFilter_1_);}
	.st7{mask:url(#b_2_);}
</style>
<g>
	<defs>
		<filter id="Adobe_OpacityMaskFilter" filterUnits="userSpaceOnUse" x="0" y="0" width="1539" height="266">
			<feColorMatrix  type="matrix" values="1 0 0 0 0  0 1 0 0 0  0 0 1 0 0  0 0 0 1 0"/>
		</filter>
	</defs>
	<mask maskUnits="userSpaceOnUse" x="0" y="0" width="1539" height="266" id="b_1_">
		<g class="st0">
			<path id="a_1_" class="st1" d="M0,0h1440v197H0V0z"/>
		</g>
	</mask>
	<g class="st2">
		<path class="st3" d="M1440,50.2L1088.5,0L949.7,50.2L878,25.1L556,0L398.5,50.2l-95.8-25.1l-51.3,16.8L45.7,0L0,17.7V160h1440
			V50.2z"/>
		<path class="st4" d="M1394.3,1l94.6,69.3l50-49.4L1394.3,1z M1137.3,42.6l51.3,27.8l80.6-5.4L1137.3,42.6z M884,1l157.5,83.2
			l80.9-26.1L884,1z M351.5,1l138.8,83.2l49.3-28.5L351.5,1z"/>
		<path class="st5" d="M0,84.2L351.5,1l138.8,83.2L562,42.6L884,1l157.5,83.2l95.8-41.6l51.3,27.8L1394.3,1l45.7,29.3V266H0V84.2z"
			/>
	</g>
</g>
<g>
	<defs>
		<filter id="Adobe_OpacityMaskFilter_1_" filterUnits="userSpaceOnUse" x="1340" y="0" width="1539" height="266">
			<feColorMatrix  type="matrix" values="1 0 0 0 0  0 1 0 0 0  0 0 1 0 0  0 0 0 1 0"/>
		</filter>
	</defs>
	<mask maskUnits="userSpaceOnUse" x="1340" y="0" width="1539" height="266" id="b_2_">
		<g class="st6">
			<path id="a_2_" class="st1" d="M2879,197H1439V0l1440,0L2879,197z"/>
		</g>
	</mask>
	<g class="st7">
		<path class="st3" d="M1439,160h1440l0-142.3L2833.3,0l-205.7,41.9l-51.3-16.8l-95.8,25.1L2323,0l-322,25.1l-71.7,25.1L1790.5,0
			L1439,50.2V160z"/>
		<path class="st4" d="M1340,20.9l50,49.4L1484.7,1L1340,20.9z M1609.8,64.9l80.6,5.4l51.3-27.8L1609.8,64.9z M1756.6,58.1
			l80.9,26.1L1995,1L1756.6,58.1z M2339.3,55.6l49.3,28.5L2527.5,1L2339.3,55.6z"/>
		<path class="st5" d="M2879,266H1439V30.3L1484.7,1l205.7,69.3l51.3-27.8l95.8,41.6L1995,1l322,41.6l71.7,41.6L2527.5,1L2879,84.2
			L2879,266z"/>
	</g>
</g>
</svg>
